<?xml version="1.0" encoding="UTF-8"?>
<svg id="lijnen_eri" data-name="lijnen eri" xmlns="http://www.w3.org/2000/svg" viewBox="0 0 600.82 561.58">
  <defs>
    <style>
      .cls-1 {
        fill: #e1d5cb;
        stroke-width: 0px;
      }
    </style>
  </defs>
  <path class="cls-1" d="m310.45,9.87c1.47.27,2.96.5,4.42.81,6.1,1.28,11.58,4.11,16.75,7.39,4.98,3.17,9.92,6.55,14.24,10.53,4.51,4.15,8.55,8.92,12.28,13.81,4.65,6.09,8.85,12.53,13.11,18.91,5.58,8.35,11.42,16.56,16.45,25.23,5.73,9.87,11.06,20.01,15.89,30.35,3.43,7.33,6.03,15.09,8.46,22.84,1.66,5.28,2.38,10.84,4.15,16.5,1.17-4.42,2.8-8.78,3.37-13.27.59-4.6.38-9.35.06-13.99-.26-3.75-.95-7.54-1.94-11.17-.99-3.61-2.43-7.12-3.99-10.54-2.03-4.45-4.15-8.85-7.48-12.6-3.35-3.77-6.27-7.91-9.39-11.87-.97-1.23-1.99-2.43-2.98-3.64.14-.29.29-.58.43-.86,4.03.9,8.1,1.63,12.08,2.72,7.98,2.19,15.67,5.02,23.11,8.81,4.99,2.54,9.53,5.48,13.71,9.06,3.64,3.11,7.45,6.14,10.5,9.78,3.53,4.21,6.73,8.84,9.31,13.69,2.41,4.53,4.24,9.47,5.55,14.44,1.13,4.29,1.39,8.86,1.61,13.32.42,8.49-.24,16.98-2.04,25.27-1.52,7.01-3.73,13.88-5.84,20.75-1.37,4.45-2.94,8.85-4.73,13.15-1.33,3.19-3.16,6.18-4.77,9.26-3.97,7.57-7.92,15.15-11.94,22.7-.75,1.4-1.66,2.79-2.79,3.9-1.74,1.72-3.18-.17-4.28-1.02-4.66-3.59-9.23-7.3-13.63-11.2-6.74-5.97-13.38-12.05-19.93-18.23-4.55-4.3-8.98-8.75-13.26-13.33-2.36-2.52-4.32-5.41-6.44-8.15-2.22-2.87-4.56-5.65-6.59-8.65-3.06-4.52-6.03-9.12-8.78-13.83-2.75-4.71-4.86-9.7-6.28-15.05-1.55-5.84-3.15-11.6-3.28-17.7-.1-4.65,1.02-9,2.17-13.44,1.37-5.32,3.78-10.08,6.85-14.49,2.13-3.06,4.75-5.81,7.41-8.44,1.17-1.16.94-1.55-.04-2.52-5.89-5.84-11.64-11.82-17.56-17.63-8.26-8.11-16.6-16.14-24.96-24.15-3.39-3.25-7.4-5.64-12.08-6.2-2.6-.32-5.54-.22-7.95.7-7.13,2.71-12.64,7.77-17.41,13.58-3.13,3.81-5.99,7.85-8.82,11.89-2.71,3.87-5.41,7.76-7.81,11.82-5.75,9.75-11.42,19.55-16.95,29.44-5.14,9.21-10.1,18.52-15.04,27.83-3.65,6.88-7.23,13.8-10.68,20.78-3.53,7.12-6.85,14.35-10.29,21.52-3.55,7.4-7.1,14.82-10.74,22.18-2,4.05-4.2,8-6.27,12.02-.32.62-.37,1.38-.65,2.49-2.94-1.73-5.8-3.31-8.55-5.06-3.81-2.44-7.52-5.04-11.31-7.51-4.65-3.02-9.38-5.94-13.99-9.03-.46-.31-.7-1.67-.42-2.23,4.29-8.49,8.55-17,13.1-25.36,5.66-10.38,11.62-20.61,17.39-30.93,4.04-7.23,7.95-14.53,11.97-21.77,3.62-6.53,7.21-13.08,10.98-19.52,4.09-7,8.23-13.97,12.58-20.8,4.63-7.25,9.46-14.38,14.34-21.46,4.24-6.16,8.5-12.32,13.05-18.26,4.96-6.48,9.83-13.12,15.53-18.91,4.83-4.9,9.7-10.18,16.66-12.4,2.54-.81,5.12-1.49,7.68-2.22,2.23,0,4.46,0,6.69,0Z"/>
  <path class="cls-1" d="m32.85,428.49c.37-.47.95-.89,1.09-1.43,1.26-4.91,2.03-9.99,3.76-14.72,2.74-7.5,5.98-14.83,9.26-22.11,2.86-6.34,5.93-12.59,9.19-18.74,3.07-5.78,6.52-11.36,9.76-17.05,2.05-3.59,3.84-7.34,6.06-10.81,2.77-4.34,5.73-8.57,8.85-12.67,4.92-6.47,9.78-13.02,15.17-19.1,3.92-4.42,8.62-8.16,13.02-12.15,1.22-1.11,2.63-2.01,3.82-3.7-2.25.5-4.5,1.04-6.76,1.48-6.67,1.29-12.47,4.39-18.16,8-5.83,3.69-10.33,8.59-14.85,13.65-5.01,5.62-8.62,11.95-11.24,18.92-1.54,4.09-2.97,8.22-4.48,12.32-.34.92-.82,1.79-1.23,2.68-.55-.27-1.11-.54-1.66-.81-1.62-6.45-3.45-12.85-4.8-19.36-1.02-4.89-1.85-9.89-1.99-14.86-.16-5.59.16-11.26.99-16.78.79-5.26,2-10.57,3.92-15.51,2-5.14,4.78-10.05,7.78-14.71,2.19-3.39,4.99-6.53,8.04-9.2,4.78-4.2,9.63-8.52,15.09-11.67,7.85-4.52,16.28-7.9,25.17-10.17,13.25-3.38,26.54-6.09,40.29-6.06,8.82.02,17.65-.37,26.47-.49,1.54-.02,3.1.27,4.6.63.38.09.87,1.08.78,1.55-1.86,9.62-3.67,19.25-5.75,28.82-1.46,6.72-3.22,13.37-4.98,20.02-1.11,4.2-2.4,8.35-3.72,12.48-1.51,4.73-2.95,9.5-4.78,14.11-1.54,3.86-3.49,7.56-5.46,11.23-2.51,4.68-4.99,9.4-7.91,13.81-2.35,3.55-5.16,6.86-8.1,9.95-3.14,3.31-6.31,6.83-10.12,9.22-6.36,3.98-13.16,7.37-20.87,7.99-3.99.32-8.05.81-12,.42-4.01-.4-7.93-1.8-12.47-2.9-.94,3.21-1.99,6.8-3.03,10.39-2.4,8.31-4.86,16.61-7.16,24.95-2.24,8.12-4.6,16.22-6.42,24.44-2.63,11.9,2.38,20.28,13.76,24.75,8.51,3.34,17.39,4.51,26.34,5.49,5.36.59,10.72,1.34,16.1,1.52,5.34.19,10.69-.35,16.04-.38,10.42-.07,20.83-.02,31.25-.02,5.14,0,10.28.13,15.41-.03,8.11-.26,16.21-.68,24.31-1.1,6.06-.31,12.11-.79,18.18-1.08,8.84-.43,17.69-.71,26.53-1.15,5.69-.28,11.38-.71,17.06-1.12.8-.06,1.58-.36,2.75-.64-.85,13.78-1.68,27.37-2.55,41.37-5.47.17-11.24.47-17.02.52-31.08.23-62.16.49-93.24.52-9.31,0-18.62-.61-27.93-1.08-8.91-.45-17.83-.86-26.7-1.71-7.62-.73-15.17-2.06-22.76-3.13-4.24-.6-8.54-.93-12.71-1.87-7.95-1.8-16.07-3.31-23.29-7.28-4.71-2.59-8.51-6.3-11.21-11.17-2.61-4.71-4.37-9.6-4.99-14.93-.02-.21-.32-.38-.49-.57,0-6.32,0-12.63,0-18.95Z"/>
  <path class="cls-1" d="m409.49,490.12c3.86,3.23,7.57,6.65,11.61,9.61,2.99,2.19,6.23,4.32,9.69,5.52,5.88,2.06,11.94,4.11,18.08,4.83,11.18,1.32,22.38.72,33.23-2.93,2.04-.69,4.21-.97,6.33-1.43.19.24.38.49.57.73-1.44,1.92-2.77,3.94-4.34,5.74-2.34,2.67-4.75,5.31-7.33,7.74-4.48,4.23-8.95,8.51-13.74,12.37-3.2,2.58-6.77,4.88-10.51,6.56-6.82,3.06-13.97,5.22-21.27,7.06-6.2,1.56-12.34,1.47-18.47,1.16-4.68-.24-9.4-1.45-13.91-2.85-4.62-1.44-9.24-3.22-13.43-5.6-5.49-3.12-10.6-6.92-15.78-10.56-3.62-2.55-7.32-5.08-10.54-8.1-3.31-3.1-6.17-6.7-9.07-10.21-4.54-5.52-9.13-11.01-13.36-16.76-4.9-6.66-9.5-13.54-14.13-20.39-3.48-5.16-3.15-6.31,3.23-8.8,13.86-5.4,27.75-10.75,41.76-15.77,6.71-2.4,13.62-4.42,20.6-5.84,8.51-1.74,17.16-2.83,25.79-3.93,11.86-1.51,23.47.49,34.55,4.37,8.12,2.84,15.25,7.88,20.38,15.15,1.97,2.8,4.25,5.46,5.73,8.5,1.72,3.54,2.71,7.43,4.1,11.42,5.33-1.72,10.65-3.5,16-5.16,11.45-3.56,22.97-6.88,34.34-10.66,4.95-1.64,9.82-3.8,14.34-6.38,6.32-3.61,8.41-9.71,8-16.73-.53-9.14-3.82-17.48-7.97-25.48-3.02-5.82-6.27-11.55-9.72-17.13-6.62-10.72-13.45-21.31-20.2-31.94-2.24-3.53-4.41-7.11-6.84-10.51-3.5-4.89-7.24-9.62-10.81-14.46-.91-1.24-1.49-2.72-2.39-3.97-6.02-8.3-12.09-16.57-18.13-24.86-2.17-2.98-4.29-6-6.51-8.94-4.23-5.59-8.58-11.09-12.77-16.71-3.18-4.27-6.25-8.62-9.22-13.04-.29-.42.25-1.96.81-2.3,2.94-1.74,6.06-3.17,9.02-4.88,5.65-3.25,11.23-6.61,16.83-9.93,2.33-1.38,4.61-2.84,7-4.11.41-.22,1.51.13,1.81.56,4.47,6.36,8.84,12.8,13.28,19.18,3.1,4.44,6.42,8.72,9.41,13.23,8.78,13.27,17.43,26.62,26.17,39.92,4.39,6.69,9,13.23,13.25,20.01,3.6,5.74,6.8,11.73,10.24,17.58,4.71,8.03,9.75,15.88,14.16,24.07,5.09,9.46,10.12,19.02,14.32,28.9,3.87,9.1,8.13,18.25,9.33,28.22,1.07,8.8-.82,16.92-6.49,24.2-5.31,6.82-12.13,11.43-19.69,14.99-6.08,2.86-12.41,5.42-18.88,7.2-7.43,2.05-15.09,3.47-22.74,4.48-11.22,1.49-22.51,2.41-33.78,3.5-3,.29-6.03.38-9.05.48-6.32.22-12.64.58-18.95.5-5.52-.07-11.04-.58-16.55-1.06-5.19-.45-10.35-1.2-15.55-1.64-6.24-.53-12.16-2.24-17.94-4.53-1.13-.45-2.3-.79-3.45-1.18-.14.33-.28.65-.42.98Z"/>
</svg>