<?xml version="1.0" encoding="UTF-8"?>
<svg id="Laag_1" data-name="Laag 1" xmlns="http://www.w3.org/2000/svg" viewBox="0 0 600.82 561.58">
  <defs>
    <style>
      .cls-1 {
        fill: #432918;
        stroke: #432918;
        stroke-miterlimit: 10;
      }
    </style>
  </defs>
  <path class="cls-1" d="m549.06,458.56c-3.74-.09-7.48-.08-11.22.02-1.56.04-2.38-.45-2.75-2.72-1.09-6.64-4.32-9.92-9.49-10.02-.82-.02-1.64-.02-2.4-.01-5.82,1.6-12.14.55-17.74-1.86-9.21-3.98-16.95-11-25.36-17.05-.19-.14-.38-.29-.57-.44-2.13-.2-4.21-.66-6.24-.38-4.68.65-9.32,1.91-14,2.55-2.52.34-5.25.57-7.63-.33-3.2-1.22-6.18-3.48-9.19-5.47-6.34-4.2-15.9-2.62-19.81,3.75-2.44,3.97-5.34,6.36-9.11,7.3-1.99.5-3.96,1.38-5.86,2.35-2.46,1.26-4.26,3.6-4.71,7.12-.31,2.4-1.28,2.67-2.78,2.62-3.56-.12-7.12-.2-10.68-.15-5.13.07-8.44,3.4-9.56,9.99-.39,2.31-1.17,2.77-2.71,2.74-3.83-.07-7.66-.09-11.49.02-5.23.15-9.04,18.98-9.12,26.09-.08,6.44,3.8,11.78,8.87,12.16,1.6.12,3.2.09,4.81.09,58.06,0,116.13,0,174.19,0,1.51,0,3.03.02,4.54-.04,5.45-.21,9.58-5.45,9.54-12.05-.05-7.43-3.91-26.14-9.55-26.28Z"/>
</svg>