<svg width="25" height="28" viewBox="0 0 25 28" fill="none" xmlns="http://www.w3.org/2000/svg">
<path d="M22.1851 17.3333C21.993 18.6065 21.5273 19.8277 20.8174 20.92C20.1075 22.0124 19.1687 22.9521 18.0602 23.68C17.7815 22.5733 16.0674 21.6667 13.8239 21.4133C14.0608 19.8267 14.5485 18.3467 14.8829 17.4933C15.4125 17.8133 16.0256 18 16.7224 18C21.6695 18 20.903 10 20.903 10C20.903 10 20.2062 11.3333 18.1159 11.3333H16.7224C16.1025 11.3332 15.4938 11.4912 14.9591 11.7913C14.4244 12.0913 13.983 12.5224 13.6805 13.0401C13.378 13.5578 13.2254 14.1433 13.2384 14.7363C13.2513 15.3293 13.4294 15.9082 13.7542 16.4133C14.6739 15.4933 15.6633 14.6667 16.7224 14C14.8829 15.7733 13.4755 18 12.5418 20.1333C11.6639 18.4933 10.563 17.24 9.75474 16.6667C10.4097 16.9333 11.0229 17.3333 11.6081 17.7333C11.7614 17.4133 11.845 17.0533 11.845 16.6667C11.7754 13.0267 5.57414 13.3333 5.57414 13.3333C6.00613 13.8933 6.2709 14.6 6.2709 15.3333V16.6667C6.2709 18.1333 7.52508 19.3333 9.05797 19.3333C9.75474 19.3333 10.3818 19.0933 10.8696 18.6667C11.1901 19.5067 11.427 20.4667 11.5524 21.3867C9.15552 21.5867 7.31605 22.52 7.02341 23.6933C4.47324 22 2.78707 19.1867 2.78707 16C2.78707 10.8533 7.16277 6.66667 12.5418 6.66667V10.6667L19.5095 5.33333L12.5418 0V4C9.21551 4 6.02545 5.26428 3.67341 7.51472C1.32137 9.76515 0 12.8174 0 16C0 19.1826 1.32137 22.2348 3.67341 24.4853C6.02545 26.7357 9.21551 28 12.5418 28C18.9939 28 24.3032 23.3333 25 17.3333H22.1851Z" fill="#E1D5CB"/>
</svg>
