<?xml version="1.0" encoding="UTF-8"?>
<svg id="Laag_1" data-name="Laag 1" xmlns="http://www.w3.org/2000/svg" viewBox="0 0 600.82 561.58">
  <defs>
    <style>
      .cls-1 {
        fill: #432918;
      }

      .cls-1, .cls-2 {
        stroke-width: 0px;
      }

      .cls-2 {
        fill: #009640;
      }
    </style>
  </defs>
  <g id="HbmmRi">
    <path class="cls-1" d="m220.66,395.08c-.45-.07-1.13-.12-1.3-.41-1.69-2.96-4.65-4.41-7.31-6.18-4.36-2.9-8.89-5.54-13.19-8.53-4.24-2.95-8.62-4.93-13.91-5.58-7.98-.98-14.78-4.97-18.61-12.16-4.13-7.76-10.98-11.76-18.17-15.78-3.9-2.18-8.35-4.45-10.77-7.93-3.85-5.51-8.37-8.41-14.87-8.36-.11-1.04-.22-2.03-.33-3.01-.73.06-1.46.06-2.2.02,0,.64,0,1.28-.02,1.92-.09,3.55-.25,4.19-3.78,3.9-6.14-.51-11.81.62-17.08,4.14-2.38,1.59-5.35,2.69-8.19,3.1-5.45.79-9.54,3.24-11.93,8.13-3.39,6.95-8.47,11.63-16,13.95-3.45,1.06-7.13,2.07-9.68,5.35-4.94,6.34-11.9,9.13-19.63,10.67-5.19,1.04-10.46,2.32-15.29,4.42-6.42,2.79-9.87,8.63-12.3,14.95-1.01,2.63,1.01,4.97,3.75,5.33,2.81.37,6.05-.41,8.16,2.49.25.34,1.08.27,1.65.36,2.3.34,4.65.5,6.9,1.05,1.87.45,3.59,1.57,5.47,1.96,1.11.23,2.38-.55,3.59-.61,3.36-.16,6.73-.06,10.07-.32,1.61-.13,2.84-.49,4.15,1.11,1.74,2.12,4.03,3.61,7.06,2.02.47-.25,1.15-.08,1.72-.16,1.35-.2,2.89-.09,4-.72,1.64-.93,2.68-1.22,4.02.49,1.18,1.5,2.96,2.8,4.84,1.08,1.52-1.39,2.54-.77,3.88.1,2.59,1.68,5.71,2.68,8.4,1.29,2.14-1.11,3.39-.58,5.13.27,2.35,1.15,4.76,2.5,7.28,2.9,2.83.45,5.68-.37,7.36-3.1,1.92.57,3.78,2.67,5.27-.86.44.68.73,1.13.77,1.19,2.09-.5,3.81-.95,5.54-1.33,3.33-.74,6.66-1.51,10.02-2.14,3.62-.68,7.25-1.28,10.9-1.76,1.82-.24,3.68-.19,5.53-.2,1.19,0,2.55-.26,3.55.22,4.71,2.24,9.54,1.91,14.49,1.29,5.86-.74,11.74-1.25,17.62-1.77,1.67-.15,3.53.46,5.02-.08,2.82-1.02,5.37-1.31,8.13.11,1.02.52,2.44.53,3.63.41,4.16-.43,8.3-1.02,12.45-1.54,1.74-.22,3.98.18,5.11-.76,2.78-2.31,6.24-2.63,9.26-4.1,1.11-.54,2.78-1.58,2.79-2.4.02-1.84-.33-4.04-2.94-4.41Z"/>
  </g>
  <g id="HbmmRi-2" data-name="HbmmRi">
    <g>
      <path class="cls-2" d="m118.51,312.53c.93,5.84,1.39,11.67,1.25,17.6.79-.11,1.58-.23,2.37-.33-.17-1.56-.35-3.06-.45-4.55-.35-5.23-.77-10.46-.88-15.7-.02-1.13.85-2.68,1.79-3.35,4.29-3.07,8.77-5.88,13.15-8.84.64-.43,1.19-1.09,1.58-1.76,1.71-2.87,3.79-5.62,4.9-8.71,1.22-3.4,1.7-7.1,2.11-10.71.12-1.03-.98-2.42-1.9-3.22-.29-.25-1.84.8-2.72,1.4-.75.51-1.27,1.41-2.07,1.81-3.64,1.81-7.35,3.44-9.45,7.29-1.07,1.95-2.74,3.62-3.57,5.65-1.32,3.2-2.18,6.58-3.18,9.9-.27.92-.34,1.89-.49,2.84-.35-.04-.71-.08-1.06-.13-1.3-6.26-2.61-12.51-3.91-18.77-.24.02-.49.03-.73.05,0,2.19-.23,4.41.04,6.57.97,7.67,2.01,15.33,3.22,22.96Zm14.79-31c.21.13.42.26.64.39-.21.78-.41,1.56-.62,2.34.24-.06.49-.09.77-.09,3.45,0,3.76,4.88.92,5.75,0,.19,0,.38,0,.57.15.33.31.67.46,1-.09.08-.18.17-.27.25-.64-.6-1.28-1.19-1.92-1.79-1.61-.42-2.26-2.1-1.95-3.54-.44-.09-.97-.18-1.69-.32,1.4-1.73,2.54-3.14,3.68-4.55Z"/>
      <path class="cls-2" d="m115.56,280.34c-3.07-1.73-5.43-3.11-7.84-4.41-5.6-3-8.68-8.19-12.11-13.24-3.33-4.91-4.73-10.14-4.37-15.88.13-2.01.16-4.39,2.61-5.46,1.6-.7,6.49.81,7.96,2.82,3.15,4.3,6.48,8.54,9.02,13.19,1.7,3.12,2.22,6.89,3.19,10.39.68,2.44,1.4,4.89,1.77,7.38.24,1.67-.12,3.42-.22,5.2Zm-18.27-24.89l-.08.07c0-.3,0-.6,0-.9.12-.08.24-.15.28-.18-.04.04-.13.16-.21.28,0,.25,0,.5,0,.73Zm-.6-2.55s.05.07.07.08l-.07-.08Z"/>
      <path class="cls-2" d="m135.01,289.91c-.28.09-.58.13-.92.13-.3,0-.56-.04-.81-.1.64.6,1.28,1.19,1.93,1.79.09-.08.18-.17.27-.25-.15-.33-.31-.67-.46-1,0-.19,0-.38,0-.57Z"/>
      <path class="cls-2" d="m97.26,254.71c.09-.11.19-.23.23-.27-.04.03-.16.1-.28.19,0,0,.05.08.05.08Z"/>
      <path class="cls-2" d="m96.73,252.98l-.05-.07.05.07Z"/>
      <path class="cls-2" d="m96.68,252.91s.07.08.06.08c0,0-.06-.08-.06-.08Z"/>
      <path class="cls-2" d="m97.27,255.47c0-.25,0-.5,0-.75,0,0-.05-.08-.06-.09,0,.29-.01.59-.01.89l.07-.05Z"/>
      <path class="cls-2" d="m97.2,255.52s.08-.07.08-.06c0,0-.08.06-.08.06Z"/>
    </g>
  </g>
</svg>