<svg width="23" height="17" viewBox="0 0 23 17" fill="none" xmlns="http://www.w3.org/2000/svg">
<path d="M21.5625 0H1.4375C1.05625 0 0.690617 0.149255 0.421034 0.414932C0.15145 0.680609 0 1.04094 0 1.41667V15.5833C0 15.9591 0.15145 16.3194 0.421034 16.5851C0.690617 16.8507 1.05625 17 1.4375 17H21.5625C21.9437 17 22.3094 16.8507 22.579 16.5851C22.8486 16.3194 23 15.9591 23 15.5833V1.41667C23 1.04094 22.8486 0.680609 22.579 0.414932C22.3094 0.149255 21.9437 0 21.5625 0ZM20.4556 15.5833H2.63062L7.66187 10.455L6.62688 9.47042L1.4375 14.7617V2.49333L10.3716 11.2554C10.6409 11.5193 11.0052 11.6674 11.385 11.6674C11.7648 11.6674 12.1291 11.5193 12.3984 11.2554L21.5625 2.27375V14.6696L16.2725 9.45625L15.2591 10.455L20.4556 15.5833ZM2.37906 1.41667H20.3981L11.385 10.2496L2.37906 1.41667Z" fill="#432918"/>
</svg>
