<?xml version="1.0" encoding="UTF-8"?>
<svg id="Laag_1" data-name="Laag 1" xmlns="http://www.w3.org/2000/svg" viewBox="0 0 600.82 561.58">
  <defs>
    <style>
      .cls-1 {
        stroke-width: .25px;
      }

      .cls-1, .cls-2 {
        stroke: #1d1d1b;
      }

      .cls-1, .cls-2, .cls-3, .cls-4 {
        stroke-miterlimit: 10;
      }

      .cls-1, .cls-2, .cls-4 {
        fill: #dedc00;
      }

      .cls-2 {
        stroke-width: .5px;
      }

      .cls-3 {
        fill: #d8c2a3;
        stroke: #d8c2a3;
      }

      .cls-4 {
        stroke: #dedc00;
      }

      .cls-5 {
        fill: #be1622;
      }

      .cls-5, .cls-6 {
        stroke-width: 0px;
      }

      .cls-6 {
        fill: #00983a;
      }
    </style>
  </defs>
  <g>
    <path class="cls-3" d="m400.33,98.71c20.11-13.97,21.98-37.7,16.44-59.39l34.67,9.46c-14.36,16.74-19.54,36.81-12.42,58.36l-38.69-8.43Z"/>
    <path class="cls-5" d="m404.64,33.65c10.87-4.6,20.07.31,28.73,6.92,3.34-4.56,6.31-9.14,9.81-13.26,4.09-4.82,9.28-8.24,15.61-9.4,1.23-.23,2.67.67,4.02,1.05-1.02,1.04-1.87,2.69-3.09,3.04-10.33,2.92-16.18,10.46-21.43,20.12,11.74-1.4,21.84-.61,28.84,8.63-3.49,1.4-6.92,2.78-10.53,4.23-4.88-6.77-10.22-7.24-15.87-.79-4.27-6.88-7.74-7.91-14.83-4.39-2.33-5.88-4.47-8.48-7.96-8.68-1.78-.1-3.92.43-6.61,1.46-2.29-3.04-4.44-5.91-6.71-8.93"/>
    <path class="cls-5" d="m390.99,95.88c2.7-1.39,5.25-2.7,8.08-4.16,4.35,5.6,8.62,6.1,14.66.49,2.42,1.81,4.54,4.36,7.17,5.1,2.52.7,5.56-.48,8.53-.85,2.5,7.97,6.9,9.97,14.58,6.03,1.41,2.63,2.83,5.27,4.46,8.3-6.78,2.6-13.54,4.24-21.13.98-5.75-2.47-11.98-4.52-18.16-5.18-8.57-.91-14.15-5.47-18.18-10.72Z"/>
    <path class="cls-6" d="m436.09,29.28c-6.47-4.05-10.08-13.73-8.04-21.58,7.61,2.15,11.32,12.12,8.04,21.58Z"/>
  </g>
  <g id="VN3WWT">
    <g>
      <path class="cls-2" d="m301.21,139.93c-9.36-.88-17.82-2.82-24.79-9.13-3.3-2.99-5.64-6.28-4.53-11.03,1.06-4.54,4.57-6.51,8.57-7.1,7.39-1.08,14.86-1.68,22.31-2.33,8.35-.73,16.5-2.17,23.97-6.2,5.64-3.04,9.55-7.1,10.47-14.04,1.45-10.86,4.32-21.4,11.55-30.11,2.16-2.61,4.46-5.23,7.14-7.24,2.57-1.93,3.24-4.11,2.85-7-.85-6.35-1.56-12.72-2.55-19.05-.74-4.72,1.4-8.52,6.06-8.77,5.1-.27,10.35-.25,15.36.64,6.13,1.09,7.76,4.25,6.67,10.41-1.16,6.57-2.29,13.14-3.51,19.7-.4,2.17-.04,3.59,1.9,5.16,8.66,7.03,12.65,16.8,15.19,27.31.96,3.97,2.03,7.93,2.7,11.96.85,5.06,4.32,7.4,8.66,8.77,8.86,2.8,17.48,1.25,26.03-1.7,3.71-1.28,7.54-2.36,11.41-3.02,3.75-.64,7.67-.16,9.83,3.44,2.17,3.61,1.85,7.61-.21,11.3-3.72,6.65-9.32,11.31-16.17,14.42-3.19,1.45-6.63,2.34-11.32,3.96,3.47.95,5.9,1.75,8.38,2.26,7.6,1.56,15.24,2.95,22.84,4.53,4.62.96,9.54,2.24,10.4,7.69.85,5.41-2.83,9.13-7.16,11.41-4.28,2.26-8.95,4.23-13.67,5.11-14.71,2.74-29.36,1.96-43.5-3.19-15.26-5.55-25.51-16.26-30.85-31.62-.44-1.26-.91-2.5-1.35-3.68-3.2,6.27-5.87,12.7-9.56,18.48-8.21,12.83-19.63,22.09-33.58,28.25-17.04,7.52-34.68,12.54-53.48,11.11-5.08-.39-10.42-2.22-14.86-4.75-5.03-2.86-5.49-8.2-1.13-12.03,5.25-4.6,11.16-8.56,17.2-12.1,7.35-4.32,15.13-7.91,22.72-11.81Zm73.13-48.38c.59.08,1.18.17,1.77.25.16,2.52.4,5.04.48,7.57.12,4.22-.21,8.48.26,12.65,2,17.59,9.44,31.99,26.09,39.71,17.12,7.94,35.04,8.42,53.03,3.01,2.88-.87,5.63-2.82,7.9-4.86,3.39-3.05,2.51-6.16-1.76-7.6-1.03-.35-2.1-.57-3.17-.79-9.05-1.89-18.18-3.49-27.15-5.71-14.94-3.71-26.06-12.34-31.29-27.14-2.71-7.67-4.46-15.69-6.38-23.62-2.83-11.72-6.48-22.84-17.25-30.02-.85-.57-1.27-2.58-1.08-3.79,1.24-7.79,2.55-15.57,4.16-23.29.63-3.01-.34-4.61-3.09-4.98-3.89-.52-7.84-.95-11.75-.89-4.41.07-4.9,1.29-4.26,5.7,1.03,7.13,1.74,14.31,2.53,21.47.28,2.51-.68,4.23-2.93,5.72-5.94,3.92-10.69,9.27-13.01,15.89-2.95,8.42-5.18,17.17-6.94,25.93-4.11,20.43-14.99,35.62-33.49,45.28-8.8,4.59-17.73,8.95-26.42,13.74-5.22,2.88-10.27,6.14-15.06,9.7-3.46,2.57-3.15,5.87.7,7.78,2.97,1.47,6.42,2.47,9.72,2.7,21.59,1.47,41.6-4.15,60.35-14.47,13-7.16,22.75-17.6,29.16-31.07,4.83-10.15,6.18-21.06,7.22-32.07.22-2.29,1.08-4.53,1.64-6.79Zm-41.15,14.2c-11.14,6.8-22.28,8.83-33.84,9.41-5.44.27-10.91.61-16.25,1.56-2.4.43-6.26,2.32-6.37,3.78-.19,2.45,1.46,5.82,3.44,7.52,9.59,8.25,24.94,8.47,33.97,3.57,9.56-5.19,15.18-14.38,19.04-25.86Zm71.52-.73c-.42.42-.83.84-1.25,1.25,3.28,4.85,6.28,9.94,9.95,14.47,2.11,2.61,4.68,4.91,8.92,4.83,9.41-.17,17.68-3.07,24.6-9.27,2.54-2.27,4.68-5.39,5.97-8.54,1.74-4.24-.35-6.63-4.93-6.14-2.95.31-5.97.87-8.72,1.94-11.35,4.4-22.76,6.33-34.55,1.46Z"/>
      <path class="cls-1" d="m374.34,91.55c-.56,2.26-1.42,4.49-1.64,6.79-1.04,11.01-2.39,21.92-7.22,32.07-6.41,13.47-16.16,23.91-29.16,31.07-18.74,10.33-38.76,15.94-60.35,14.47-3.3-.22-6.75-1.23-9.72-2.7-3.85-1.91-4.16-5.21-.7-7.78,4.78-3.55,9.84-6.82,15.06-9.7,8.69-4.79,17.62-9.15,26.42-13.74,18.5-9.65,29.38-24.85,33.49-45.28,1.76-8.76,3.99-17.51,6.94-25.93,2.32-6.62,7.07-11.97,13.01-15.89,2.25-1.49,3.21-3.21,2.93-5.72-.8-7.16-1.5-14.34-2.53-21.47-.64-4.41-.16-5.63,4.26-5.7,3.91-.06,7.86.37,11.75.89,2.75.37,3.72,1.97,3.09,4.98-1.6,7.72-2.92,15.5-4.16,23.29-.19,1.21.23,3.23,1.08,3.79,10.77,7.18,14.42,18.3,17.25,30.02,1.91,7.93,3.66,15.95,6.38,23.62,5.23,14.8,16.35,23.43,31.29,27.14,8.97,2.23,18.1,3.82,27.15,5.71,1.06.22,2.14.44,3.17.79,4.27,1.44,5.15,4.54,1.76,7.6-2.27,2.05-5.03,4-7.9,4.86-17.99,5.41-35.91,4.93-53.03-3.01-16.65-7.72-24.09-22.12-26.09-39.71-.47-4.17-.14-8.43-.26-12.65-.07-2.53-.31-5.05-.48-7.57-.59-.08-1.18-.17-1.77-.25Z"/>
      <path class="cls-4" d="m333.19,105.75c-3.86,11.48-9.48,20.67-19.04,25.86-9.03,4.9-24.39,4.68-33.97-3.57-1.98-1.7-3.64-5.07-3.44-7.52.12-1.47,3.97-3.35,6.37-3.78,5.34-.96,10.81-1.29,16.25-1.56,11.56-.58,22.69-2.62,33.84-9.41Z"/>
      <path class="cls-4" d="m404.71,105.02c11.79,4.87,23.2,2.94,34.55-1.46,2.75-1.07,5.77-1.63,8.72-1.94,4.58-.48,6.67,1.9,4.93,6.14-1.29,3.15-3.43,6.27-5.97,8.54-6.92,6.2-15.18,9.1-24.6,9.27-4.24.08-6.81-2.22-8.92-4.83-3.67-4.54-6.67-9.62-9.95-14.47.42-.42.83-.84,1.25-1.25Z"/>
    </g>
  </g>
</svg>