<svg width="35" height="35" viewBox="0 0 35 35" fill="none" xmlns="http://www.w3.org/2000/svg">
<path d="M29.1667 16.0417L17.5 4.375L4.375 17.5H7.29167V27.7083C7.29167 28.4819 7.59896 29.2237 8.14594 29.7707C8.69292 30.3177 9.43478 30.625 10.2083 30.625H17.5" stroke="#E1D5CB" stroke-width="2" stroke-linecap="round" stroke-linejoin="round"/>
<path d="M13.125 30.625V21.875C13.125 21.1014 13.4323 20.3596 13.9793 19.8126C14.5263 19.2656 15.2681 18.9583 16.0417 18.9583H18.9583C19.4323 18.9583 19.8785 19.0706 20.2738 19.2719M23.3333 32.0833C23.3333 32.0833 23.3333 29.1666 27.7083 26.25" stroke="#E1D5CB" stroke-width="2" stroke-linecap="round" stroke-linejoin="round"/>
<path d="M27.7083 30.625C26.548 30.625 25.4352 30.1641 24.6147 29.3436C23.7943 28.5231 23.3333 27.4103 23.3333 26.25C23.3333 25.0897 23.7943 23.9769 24.6147 23.1564C25.4352 22.3359 26.548 21.875 27.7083 21.875H32.0833V26.25C32.0833 27.4103 31.6224 28.5231 30.8019 29.3436C29.9815 30.1641 28.8687 30.625 27.7083 30.625Z" stroke="#E1D5CB" stroke-width="2" stroke-linecap="round" stroke-linejoin="round"/>
</svg>
