<svg width="41" height="41" viewBox="0 0 41 41" fill="none" xmlns="http://www.w3.org/2000/svg">
<path d="M34.1667 18.7917L20.5 5.125L5.125 20.5H8.54167V32.4583C8.54167 33.3645 8.90164 34.2335 9.54238 34.8743C10.1831 35.515 11.0522 35.875 11.9583 35.875H20.5" stroke="#E1D5CB" stroke-width="2" stroke-linecap="round" stroke-linejoin="round"/>
<path d="M15.375 35.875V25.625C15.375 24.7189 15.735 23.8498 16.3757 23.2091C17.0165 22.5683 17.8855 22.2084 18.7917 22.2084H22.2083C22.7635 22.2084 23.2863 22.3399 23.7493 22.5757M27.3333 37.5834C27.3333 37.5834 27.3333 34.1667 32.4583 30.75" stroke="#E1D5CB" stroke-width="2" stroke-linecap="round" stroke-linejoin="round"/>
<path d="M32.4583 35.875C31.0991 35.875 29.7955 35.335 28.8344 34.3739C27.8733 33.4128 27.3333 32.1092 27.3333 30.75C27.3333 29.3908 27.8733 28.0872 28.8344 27.1261C29.7955 26.165 31.0991 25.625 32.4583 25.625H37.5833V30.75C37.5833 32.1092 37.0434 33.4128 36.0823 34.3739C35.1211 35.335 33.8176 35.875 32.4583 35.875Z" stroke="#E1D5CB" stroke-width="2" stroke-linecap="round" stroke-linejoin="round"/>
</svg>
