<svg width="375" height="193" viewBox="0 0 375 193" fill="none" xmlns="http://www.w3.org/2000/svg">
<g clip-path="url(#clip0_83_2)">
<path d="M129.087 100.443C134.813 96.0025 135.066 88.9291 133.175 82.5679L143.46 84.8806C139.457 90.06 138.187 96.0945 140.54 102.393L129.091 100.444L129.087 100.443Z" fill="#D8C2A3" stroke="#D8C2A3" stroke-miterlimit="10"/>
<path d="M129.545 81.0571C132.675 79.5339 135.43 80.8616 138.055 82.702C138.977 81.2982 139.794 79.8983 140.77 78.6222C141.908 77.1325 143.39 76.0397 145.231 75.6063C145.588 75.5199 146.025 75.7664 146.424 75.8607C146.136 76.185 145.91 76.685 145.559 76.8052C142.569 77.823 140.943 80.1429 139.524 83.0879C142.95 82.5017 145.919 82.5905 148.084 85.2397C147.075 85.7074 146.087 86.1658 145.048 86.6453C143.532 84.7023 141.962 84.6411 140.386 86.6388C139.052 84.658 138.019 84.4025 135.986 85.5476C135.231 83.8358 134.572 83.0904 133.548 83.0822C133.024 83.0757 132.402 83.2646 131.626 83.6132C130.919 82.7411 130.25 81.9194 129.549 81.058" fill="#BE1622"/>
<path d="M126.312 99.7353C127.089 99.2848 127.819 98.8565 128.628 98.3854C129.975 99.9848 131.233 100.073 132.932 98.3207C133.663 98.8231 134.316 99.5488 135.096 99.7334C135.842 99.9058 136.721 99.5107 137.585 99.3579C138.416 101.689 139.73 102.22 141.933 100.942C142.378 101.704 142.827 102.467 143.342 103.342C141.385 104.213 139.424 104.795 137.162 103.939C135.442 103.288 133.596 102.772 131.773 102.662C129.25 102.517 127.557 101.242 126.311 99.7397L126.312 99.7353Z" fill="#BE1622"/>
<path d="M138.713 79.308C136.767 78.1991 135.591 75.3741 136.09 73.0138C138.348 73.5447 139.56 76.4519 138.713 79.308Z" fill="#00983A"/>
</g>
<path d="M316.519 138.759C317.989 138.659 319.459 138.589 320.929 138.569C321.069 138.569 321.209 138.569 321.329 138.519C321.849 138.329 322.349 137.399 322.679 136.969C323.229 136.259 323.779 135.539 324.309 134.809C325.389 133.339 326.429 131.829 327.419 130.289C329.339 127.289 331.109 124.139 332.339 120.789C332.449 120.499 317.389 113.339 315.999 112.699C309.889 109.889 303.629 107.389 297.199 105.449C293.399 104.299 293.229 104.369 292.219 108.109C291.469 110.909 290.689 113.699 290.029 116.519C288.689 122.199 287.799 127.989 288.039 133.839C288.069 134.559 288.039 134.579 288.659 134.899C289.279 135.219 289.889 135.469 290.499 135.759C293.449 137.129 296.439 138.519 299.639 139.089C301.119 139.349 302.639 139.439 304.139 139.519C305.449 139.589 306.759 139.669 308.079 139.739C308.939 139.789 309.829 139.839 310.679 139.649C312.309 139.289 313.809 138.969 315.499 138.829C315.839 138.799 316.179 138.779 316.519 138.749V138.759Z" fill="#706F6F" stroke="#706F6F" stroke-miterlimit="10"/>
<path d="M304.899 108.929C302.059 113.399 301.059 118.889 302.379 124.049C302.849 125.859 303.669 127.709 305.269 128.689C306.589 129.499 308.249 129.579 309.779 129.339C312.959 128.849 315.849 127.089 318.109 124.809C320.369 122.529 322.049 119.729 323.459 116.839C323.399 116.959 306.629 109.709 304.889 108.919L304.899 108.929Z" fill="#9D9D9C"/>
<path d="M319.959 113.969L347.789 49.5086L338.749 45.9886L311.359 110.149L319.959 113.969Z" fill="#575756"/>
<path d="M344.969 0.0186208C345.919 -0.151379 347.449 0.888621 348.279 1.26862C356.969 5.17862 365.659 9.07862 374.349 12.9886C374.539 13.0786 378.039 14.6786 378.059 14.6586C373.019 23.8486 365.999 36.9886 354.249 38.2386L352.599 38.4086L347.799 49.5186L338.759 46.0086L343.399 33.9986L343.649 32.6886C339.379 26.3486 339.679 17.8286 341.199 10.6586C341.619 8.69862 342.799 1.11862 344.709 0.118621C344.789 0.0786208 344.879 0.0486208 344.979 0.0286208L344.969 0.0186208Z" fill="#575756"/>
<path d="M348.759 7.80863C348.829 7.74863 348.929 7.70863 349.039 7.68863C350.429 7.38863 356.399 11.7786 357.879 12.4986C361.769 14.3986 365.919 15.8486 369.739 17.8686C369.179 20.5586 366.439 24.2386 364.449 26.1386C361.729 28.7486 358.199 30.5486 354.449 31.0686C352.889 31.2886 351.219 31.2786 349.829 30.5386C347.809 29.4686 346.839 27.1086 346.439 24.8586C345.449 19.3386 346.959 13.7086 348.459 8.29863C348.519 8.07863 348.599 7.90863 348.749 7.79863L348.759 7.80863Z" stroke="#9D9D9C" stroke-miterlimit="10"/>
<path d="M-3 178C-3 164.193 8.19288 153 22 153H353C366.807 153 378 164.193 378 178V193H-3V178Z" fill="#432918"/>
<path d="M359.062 147.929C352.122 147.839 345.182 147.849 338.242 147.949C335.352 147.989 333.822 147.489 333.132 145.159C331.112 138.359 325.122 135.009 315.522 134.909C314.002 134.889 312.482 134.889 311.062 134.899C300.262 136.539 288.532 135.469 278.152 132.999C261.052 128.929 246.702 121.739 231.082 115.559C230.722 115.419 230.372 115.259 230.032 115.109C226.082 114.909 222.212 114.429 218.462 114.719C209.772 115.379 201.172 116.679 192.482 117.329C187.802 117.679 182.732 117.919 178.322 116.989C172.392 115.739 166.852 113.429 161.272 111.389C149.502 107.099 131.772 108.709 124.512 115.229C119.992 119.289 114.592 121.739 107.612 122.699C103.912 123.209 100.272 124.109 96.742 125.109C92.172 126.399 88.832 128.799 88.002 132.389C87.432 134.839 85.622 135.119 82.852 135.069C76.242 134.939 69.632 134.859 63.022 134.909C53.502 134.979 47.352 138.389 45.282 145.129C44.552 147.489 43.102 147.969 40.252 147.939C33.152 147.859 26.042 147.849 18.932 147.959C9.23201 148.119 2.16201 168.379 2.00201 175.659C1.86201 182.249 9.05201 187.709 18.472 188.099C21.442 188.219 24.422 188.189 27.392 188.189C135.152 188.189 242.912 188.189 350.672 188.189C353.482 188.189 356.292 188.209 359.102 188.149C369.212 187.929 376.882 182.569 376.802 175.819C376.712 168.219 369.542 148.069 359.082 147.929H359.062Z" fill="#432918" stroke="#432918" stroke-miterlimit="10"/>
<path d="M115.002 118.681C112.786 119.013 110.715 119.048 108.736 117.983C107.8 117.48 107.068 116.849 107.048 115.681C107.03 114.568 107.727 113.905 108.622 113.54C110.27 112.865 111.963 112.297 113.648 111.72C115.539 111.072 117.34 110.269 118.834 108.905C119.963 107.875 120.629 106.707 120.443 105.042C120.15 102.435 120.203 99.8236 121.371 97.3821C121.721 96.6535 122.099 95.9099 122.606 95.2887C123.087 94.6926 123.116 94.1486 122.861 93.4991C122.297 92.0724 121.767 90.6328 121.169 89.219C120.724 88.1634 121 87.1596 122.064 86.8315C123.229 86.4761 124.445 86.1797 125.654 86.0997C127.135 86.0015 127.696 86.6395 127.802 88.1357C127.913 89.7272 128.033 91.3196 128.129 92.9128C128.161 93.4416 128.328 93.7475 128.867 94.0046C131.277 95.1432 132.768 97.1812 133.961 99.4765C134.412 100.343 134.891 101.203 135.279 102.098C135.771 103.225 136.707 103.568 137.791 103.637C140.002 103.778 141.908 102.926 143.718 101.749C144.503 101.239 145.327 100.77 146.183 100.393C147.013 100.029 147.95 99.9168 148.655 100.628C149.365 101.342 149.525 102.288 149.262 103.264C148.787 105.025 147.761 106.428 146.358 107.542C145.704 108.061 144.961 108.469 143.967 109.112C144.827 109.134 145.433 109.179 146.036 109.155C147.886 109.08 149.733 108.967 151.584 108.894C152.71 108.85 153.921 108.867 154.436 110.086C154.947 111.292 154.308 112.368 153.442 113.146C152.582 113.917 151.616 114.644 150.577 115.118C147.33 116.598 143.898 117.258 140.329 116.877C136.476 116.464 133.486 114.566 131.358 111.305C131.182 111.037 131.001 110.775 130.833 110.528C130.455 112.166 130.213 113.815 129.69 115.369C128.535 118.82 126.427 121.628 123.556 123.86C120.048 126.587 116.258 128.764 111.826 129.514C110.628 129.714 109.29 129.598 108.114 129.265C106.785 128.889 106.368 127.675 107.157 126.533C108.106 125.164 109.244 123.904 110.436 122.734C111.888 121.309 113.479 120.028 115.008 118.686L115.002 118.681ZM129.119 103.242L129.544 103.2C129.729 103.776 129.928 104.349 130.093 104.932C130.367 105.905 130.535 106.915 130.886 107.855C132.367 111.826 134.925 114.745 139.223 115.583C143.646 116.444 147.817 115.529 151.668 113.235C152.283 112.868 152.805 112.257 153.214 111.653C153.821 110.749 153.438 110.078 152.366 109.989C152.109 109.966 151.846 109.977 151.586 109.987C149.383 110.069 147.179 110.221 144.973 110.218C141.3 110.215 138.231 108.85 136.161 105.71C135.091 104.083 134.22 102.319 133.317 100.59C131.983 98.029 130.493 95.6564 127.586 94.6062C127.357 94.5226 127.141 94.0796 127.115 93.7863C126.95 91.9037 126.802 90.0228 126.729 88.1365C126.7 87.4006 126.383 87.086 125.725 87.1581C124.795 87.2599 123.855 87.3851 122.955 87.6237C121.938 87.8946 121.897 88.2022 122.302 89.1916C122.953 90.7872 123.531 92.4146 124.13 94.0342C124.338 94.6005 124.219 95.0585 123.783 95.532C122.637 96.7823 121.845 98.2986 121.693 99.9711C121.496 102.096 121.488 104.259 121.586 106.392C121.817 111.373 120.18 115.53 116.459 118.833C114.688 120.404 112.876 121.931 111.14 123.543C110.1 124.512 109.12 125.559 108.217 126.662C107.567 127.458 107.826 128.208 108.828 128.428C109.603 128.6 110.457 128.636 111.232 128.495C116.312 127.596 120.618 125.144 124.357 121.667C126.951 119.257 128.602 116.274 129.305 112.776C129.836 110.138 129.515 107.53 129.117 104.912C129.033 104.368 129.103 103.8 129.103 103.24L129.119 103.242ZM120.418 108.904C118.231 111.123 115.774 112.236 113.134 113.033C111.891 113.41 110.645 113.799 109.464 114.328C108.935 114.565 108.153 115.225 108.208 115.573C108.305 116.151 108.885 116.84 109.442 117.122C112.14 118.489 115.705 117.658 117.509 116.001C119.42 114.249 120.186 111.789 120.416 108.9L120.418 108.904ZM136.926 104.628C136.852 104.75 136.782 104.87 136.708 104.992C137.748 105.929 138.738 106.941 139.849 107.781C140.487 108.265 141.215 108.653 142.193 108.392C144.361 107.81 146.107 106.662 147.348 104.827C147.804 104.155 148.12 103.307 148.234 102.5C148.389 101.414 147.767 100.982 146.736 101.356C146.073 101.598 145.407 101.902 144.833 102.308C142.463 103.983 139.936 105.087 136.924 104.633L136.926 104.628Z" fill="#DEDC00" stroke="#1D1D1B" stroke-width="0.5" stroke-miterlimit="10"/>
<path d="M129.122 103.241C129.121 103.797 129.053 104.368 129.136 104.912C129.533 107.527 129.852 110.14 129.325 112.777C128.621 116.274 126.971 119.258 124.377 121.667C120.637 125.145 116.332 127.596 111.252 128.496C110.475 128.633 109.618 128.598 108.848 128.429C107.846 128.208 107.582 127.456 108.236 126.662C109.138 125.564 110.116 124.513 111.16 123.543C112.893 121.933 114.707 120.404 116.478 118.834C120.202 115.526 121.836 111.374 121.605 106.393C121.507 104.255 121.516 102.097 121.712 99.9715C121.865 98.3023 122.653 96.7839 123.803 95.5323C124.238 95.0589 124.358 94.6009 124.149 94.0345C123.551 92.4149 122.973 90.7876 122.321 89.192C121.918 88.206 121.958 87.895 122.974 87.624C123.875 87.3855 124.815 87.2603 125.744 87.1585C126.402 87.0864 126.72 87.401 126.749 88.1369C126.825 90.0219 126.971 91.9075 127.134 93.7867C127.161 94.0799 127.373 94.5242 127.606 94.6066C130.513 95.6567 132.003 98.0294 133.336 100.59C134.238 102.324 135.107 104.085 136.181 105.71C138.249 108.847 141.318 110.212 144.993 110.219C147.198 110.222 149.402 110.069 151.606 109.987C151.866 109.978 152.125 109.968 152.385 109.989C153.457 110.078 153.841 110.749 153.233 111.654C152.826 112.261 152.304 112.872 151.687 113.236C147.839 115.525 143.665 116.444 139.242 115.583C134.941 114.746 132.386 111.827 130.906 107.855C130.554 106.912 130.385 105.902 130.112 104.933C129.948 104.35 129.75 103.779 129.564 103.201L129.138 103.242L129.122 103.241Z" fill="#DEDC00" stroke="#1D1D1B" stroke-width="0.25" stroke-miterlimit="10"/>
<path d="M120.421 108.903C120.194 111.79 119.423 114.247 117.513 116.003C115.706 117.662 112.142 118.492 109.447 117.124C108.89 116.842 108.313 116.152 108.213 115.576C108.154 115.228 108.936 114.568 109.469 114.33C110.65 113.801 111.895 113.408 113.139 113.035C115.779 112.238 118.239 111.124 120.422 108.906L120.421 108.903Z" fill="#DEDC00" stroke="#DEDC00" stroke-miterlimit="10"/>
<path d="M136.929 104.627C139.938 105.082 142.465 103.978 144.839 102.302C145.412 101.896 146.079 101.592 146.742 101.35C147.773 100.976 148.395 101.408 148.24 102.494C148.122 103.302 147.809 104.149 147.353 104.821C146.113 106.656 144.368 107.808 142.198 108.386C141.221 108.647 140.493 108.263 139.854 107.775C138.742 106.931 137.753 105.923 136.714 104.986C136.787 104.864 136.858 104.744 136.931 104.622L136.929 104.627Z" fill="#DEDC00" stroke="#DEDC00" stroke-miterlimit="10"/>
<defs>
<clipPath id="clip0_83_2">
<rect width="19" height="30" fill="white" transform="translate(131.582 72) rotate(12.6732)"/>
</clipPath>
</defs>
</svg>
