<svg width="27" height="27" viewBox="0 0 27 27" fill="none" xmlns="http://www.w3.org/2000/svg">
<path d="M11.8125 6.75V8.4375H6.75V6.75H11.8125ZM6.75 11.8125V10.125H11.8125V11.8125H6.75ZM6.75 15.1875V13.5H10.125V15.1875H6.75ZM5.0625 6.75V8.4375H3.375V6.75H5.0625ZM5.0625 10.125V11.8125H3.375V10.125H5.0625ZM3.375 15.1875V13.5H5.0625V15.1875H3.375ZM1.6875 1.6875V25.3125H10.125V27H0V0H14.6997L21.9375 7.23779V10.125H20.25V8.4375H13.5V1.6875H1.6875ZM15.1875 2.88721V6.75H19.0503L15.1875 2.88721ZM23.625 13.5H27V27H11.8125V13.5H15.1875V11.8125H16.875V13.5H21.9375V11.8125H23.625V13.5ZM25.3125 25.3125V18.5625H13.5V25.3125H25.3125ZM25.3125 16.875V15.1875H13.5V16.875H25.3125Z" fill="#E1D5CB"/>
</svg>
