<?xml version="1.0" encoding="UTF-8"?>
<svg id="Laag_1" data-name="Laag 1" xmlns="http://www.w3.org/2000/svg" viewBox="0 0 586.93 294.85">
  <defs>
    <style>
      .cls-1 {
        stroke-width: .25px;
      }

      .cls-1, .cls-2 {
        stroke: #1d1d1b;
      }

      .cls-1, .cls-2, .cls-3, .cls-4, .cls-5, .cls-6, .cls-7 {
        stroke-miterlimit: 10;
      }

      .cls-1, .cls-2, .cls-4 {
        fill: #dedc00;
      }

      .cls-2 {
        stroke-width: .5px;
      }

      .cls-3 {
        fill: #d8c2a3;
        stroke: #d8c2a3;
      }

      .cls-4 {
        stroke: #dedc00;
      }

      .cls-5 {
        fill: #432918;
        stroke: #432918;
      }

      .cls-6 {
        fill: #706f6f;
        stroke: #706f6f;
      }

      .cls-7 {
        fill: none;
        stroke: #9d9d9c;
      }

      .cls-8 {
        fill: #575756;
      }

      .cls-8, .cls-9, .cls-10, .cls-11 {
        stroke-width: 0px;
      }

      .cls-9 {
        fill: #be1622;
      }

      .cls-10 {
        fill: #9d9d9c;
      }

      .cls-11 {
        fill: #00983a;
      }
    </style>
  </defs>
  <g>
    <g>
      <path class="cls-6" d="m468.97,215.67c2.28-.16,4.57-.26,6.86-.3.21,0,.43,0,.63-.08.81-.29,1.58-1.75,2.09-2.41.86-1.11,1.7-2.23,2.53-3.36,1.68-2.29,3.3-4.63,4.84-7.02,2.99-4.66,5.74-9.55,7.65-14.76.17-.45-23.24-11.58-25.4-12.57-9.49-4.37-19.22-8.25-29.23-11.27-5.9-1.78-6.17-1.68-7.74,4.14-1.17,4.35-2.37,8.69-3.4,13.07-2.08,8.83-3.46,17.83-3.1,26.92.04,1.11.01,1.15.96,1.65s1.91.89,2.87,1.33c4.58,2.13,9.23,4.29,14.21,5.17,2.31.41,4.66.54,7,.67,2.04.11,4.08.23,6.12.34,1.34.07,2.72.15,4.04-.14,2.54-.56,4.87-1.06,7.5-1.28.53-.04,1.06-.09,1.59-.12Z"/>
      <path class="cls-10" d="m450.91,169.31c-4.41,6.95-5.97,15.48-3.91,23.5.72,2.81,2.01,5.7,4.49,7.22,2.06,1.26,4.63,1.39,7.01,1.02,4.94-.77,9.43-3.49,12.95-7.04,3.52-3.55,6.13-7.9,8.32-12.39-.09.19-26.16-11.09-28.86-12.3Z"/>
      <polygon class="cls-8" points="474.32 177.13 517.58 76.95 503.53 71.48 460.95 171.2 474.32 177.13"/>
      <path class="cls-8" d="m513.19.03c1.48-.26,3.85,1.36,5.15,1.94,13.51,6.07,27.01,12.14,40.52,18.22.3.14,5.74,2.63,5.76,2.59-7.83,14.29-18.75,34.71-37.01,36.64l-2.56.27-7.45,17.26-14.05-5.46,7.21-18.66s.38-2.04.38-2.04c-6.63-9.85-6.18-23.1-3.82-34.24.65-3.05,2.49-14.82,5.46-16.38.13-.07.27-.11.41-.14Z"/>
      <path class="cls-7" d="m519.09,12.14c.12-.09.26-.15.43-.19,2.16-.47,11.44,6.35,13.74,7.48,6.05,2.96,12.5,5.21,18.44,8.34-.88,4.18-5.13,9.9-8.22,12.86-4.23,4.06-9.71,6.86-15.54,7.67-2.43.34-5.02.33-7.18-.82-3.13-1.67-4.65-5.33-5.27-8.83-1.54-8.58.81-17.33,3.14-25.74.09-.34.22-.6.45-.78Z"/>
    </g>
    <path class="cls-5" d="m557.56,233.82c-10.79-.14-21.58-.13-32.36.04-4.49.07-6.87-.71-7.94-4.33-3.13-10.56-12.45-15.77-27.38-15.93-2.36-.03-4.72-.03-6.93-.02-16.79,2.54-35.02.88-51.16-2.96-26.57-6.33-48.89-17.5-73.16-27.11-.56-.22-1.1-.46-1.64-.69-6.14-.32-12.15-1.06-17.99-.61-13.51,1.03-26.87,3.04-40.38,4.06-7.28.55-15.15.91-22-.53-9.22-1.94-17.82-5.54-26.5-8.71-18.29-6.67-45.85-4.16-57.13,5.96-7.03,6.31-15.41,10.11-26.27,11.62-5.75.8-11.41,2.19-16.89,3.74-7.1,2.01-12.29,5.73-13.59,11.32-.89,3.81-3.7,4.25-8.01,4.16-10.27-.2-20.54-.32-30.81-.24-14.8.11-24.36,5.41-27.58,15.89-1.13,3.67-3.38,4.41-7.82,4.36-11.04-.12-22.09-.14-33.13.04-15.07.24-26.07,30.18-26.31,41.5-.22,10.24,10.95,18.73,25.59,19.34,4.61.19,9.24.14,13.87.14,167.48,0,334.97,0,502.45,0,4.37,0,8.74.03,13.1-.06,15.72-.34,27.64-8.67,27.52-19.16-.14-11.81-11.28-41.58-27.54-41.8Z"/>
  </g>
  <g>
    <g>
      <path class="cls-3" d="m224.17,161.92c6.17-6.42,5.15-15.02,1.62-22.36l13.04.9c-3.93,7-4.34,14.53-.26,21.71l-14.4-.24Z"/>
      <path class="cls-9" d="m221.05,138.4c3.55-2.42,7.18-1.32,10.74.42.87-1.87,1.6-3.71,2.55-5.43,1.11-2.01,2.72-3.6,4.9-4.47.42-.17,1,.05,1.51.09-.29.45-.47,1.09-.88,1.3-3.47,1.78-5.02,4.89-6.21,8.71,4.09-1.34,7.75-1.78,10.9,1.02-1.15.75-2.27,1.49-3.45,2.26-2.23-2.07-4.16-1.85-5.72.85-2.01-2.15-3.33-2.27-5.6-.5-1.25-1.93-2.2-2.71-3.46-2.53-.64.09-1.37.43-2.25.99-1.03-.92-2.01-1.79-3.03-2.71"/>
      <path class="cls-9" d="m220.63,161.57c.86-.69,1.68-1.34,2.58-2.06,1.95,1.69,3.51,1.56,5.26-.87.99.47,1.93,1.23,2.92,1.31.95.07,1.95-.57,2.98-.91,1.46,2.67,3.17,3.06,5.63,1.11.69.84,1.39,1.68,2.18,2.64-2.23,1.41-4.53,2.48-7.47,1.86-2.23-.47-4.59-.76-6.85-.55-3.12.29-5.44-.94-7.25-2.52Z"/>
      <path class="cls-11" d="m231.96,134.6c-2.6-.98-4.58-4.18-4.41-7.12,2.87.22,4.91,3.51,4.41,7.12Z"/>
    </g>
    <g id="VN3WWT">
      <g>
        <path class="cls-2" d="m191.76,183.7c-3.4.35-6.56.27-9.5-1.48-1.39-.83-2.46-1.84-2.41-3.61.05-1.69,1.16-2.65,2.55-3.15,2.56-.92,5.18-1.66,7.79-2.42,2.93-.86,5.73-1.96,8.11-3.93,1.79-1.49,2.9-3.21,2.73-5.76-.26-3.98.01-7.94,1.97-11.57.58-1.08,1.22-2.18,2.03-3.09.78-.87.86-1.7.52-2.7-.76-2.2-1.46-4.43-2.27-6.61-.6-1.63-.11-3.14,1.53-3.56,1.8-.46,3.67-.83,5.52-.87,2.26-.05,3.07.96,3.12,3.24.06,2.43.12,4.85.16,7.28.01.8.24,1.28,1.05,1.71,3.59,1.89,5.71,5.09,7.37,8.66.63,1.35,1.29,2.69,1.82,4.07.67,1.75,2.07,2.33,3.72,2.51,3.36.36,6.32-.8,9.16-2.47,1.23-.72,2.52-1.38,3.85-1.89,1.29-.5,2.72-.6,3.75.52,1.03,1.13,1.2,2.58.73,4.04-.85,2.64-2.52,4.7-4.74,6.3-1.03.74-2.2,1.31-3.75,2.22,1.31.09,2.23.2,3.15.21,2.82.01,5.65-.04,8.47-.02,1.72.01,3.56.12,4.26,2,.69,1.87-.36,3.46-1.74,4.58-1.36,1.11-2.89,2.15-4.51,2.8-5.05,2.03-10.33,2.8-15.74,1.97-5.84-.89-10.26-3.98-13.27-9.07-.25-.42-.5-.83-.74-1.22-.69,2.46-1.19,4.95-2.09,7.28-2.01,5.16-5.42,9.28-9.96,12.48-5.54,3.9-11.47,6.95-18.28,7.79-1.84.23-3.87-.05-5.64-.63-2-.66-2.55-2.53-1.26-4.21,1.54-2.02,3.37-3.85,5.27-5.55,2.31-2.06,4.83-3.9,7.26-5.84Zm22.62-22.49l.65-.04c.24.89.5,1.77.71,2.67.35,1.5.53,3.04,1,4.49,1.97,6.13,5.66,10.73,12.15,12.3,6.67,1.61,13.1.5,19.13-2.72.96-.51,1.81-1.41,2.47-2.3.99-1.33.46-2.38-1.17-2.58-.39-.05-.79-.05-1.19-.05-3.36-.03-6.73.06-10.09-.1-5.6-.25-10.18-2.54-13.1-7.44-1.52-2.54-2.71-5.28-3.96-7.97-1.85-3.98-3.95-7.68-8.3-9.47-.34-.14-.64-.83-.66-1.28-.12-2.87-.2-5.74-.18-8.61,0-1.12-.45-1.62-1.46-1.56-1.43.09-2.86.22-4.26.52-1.57.34-1.65.81-1.11,2.34.88,2.47,1.64,4.98,2.44,7.48.28.88.06,1.56-.64,2.25-1.84,1.82-3.15,4.07-3.5,6.6-.45,3.22-.62,6.49-.62,9.74,0,7.58-2.8,13.78-8.71,18.54-2.81,2.27-5.68,4.46-8.44,6.79-1.66,1.4-3.23,2.93-4.68,4.54-1.05,1.16-.7,2.32.81,2.73,1.16.31,2.47.42,3.66.27,7.8-1.02,14.54-4.45,20.49-9.48,4.13-3.48,6.86-7.9,8.18-13.17,1-3.97.7-7.95.28-11.95-.09-.83.06-1.69.1-2.54Zm-13.66,8.01c-3.49,3.22-7.31,4.74-11.4,5.78-1.92.49-3.85,1-5.68,1.72-.83.33-2.07,1.27-2,1.81.11.89.94,1.97,1.77,2.44,4.01,2.26,9.5,1.24,12.37-1.15,3.04-2.53,4.39-6.21,4.94-10.58Zm25.46-5.37c-.12.18-.24.36-.36.54,1.52,1.5,2.95,3.09,4.59,4.45.94.78,2.02,1.42,3.53,1.09,3.35-.73,6.09-2.36,8.11-5.07.74-.99,1.28-2.26,1.52-3.47.32-1.64-.6-2.34-2.2-1.84-1.03.32-2.07.74-2.97,1.31-3.73,2.38-7.66,3.89-12.22,2.99Z"/>
        <path class="cls-1" d="m214.38,161.22c-.04.85-.19,1.7-.1,2.54.41,4,.72,7.99-.28,11.95-1.32,5.26-4.05,9.68-8.18,13.17-5.95,5.02-12.69,8.46-20.49,9.48-1.19.16-2.5.05-3.66-.27-1.51-.4-1.86-1.56-.81-2.73,1.45-1.61,3.02-3.14,4.68-4.54,2.76-2.33,5.63-4.52,8.44-6.79,5.91-4.77,8.7-10.96,8.71-18.54,0-3.25.17-6.53.62-9.74.35-2.53,1.67-4.77,3.5-6.6.7-.69.91-1.37.64-2.25-.8-2.5-1.56-5.01-2.44-7.48-.54-1.53-.46-2,1.11-2.34,1.39-.3,2.83-.43,4.26-.52,1.01-.07,1.47.44,1.46,1.56-.02,2.87.07,5.74.18,8.61.02.45.31,1.13.66,1.28,4.35,1.79,6.45,5.5,8.3,9.47,1.25,2.69,2.45,5.43,3.96,7.97,2.92,4.9,7.51,7.19,13.1,7.44,3.36.15,6.73.07,10.09.1.4,0,.79,0,1.19.05,1.63.21,2.16,1.25,1.17,2.58-.66.89-1.51,1.79-2.47,2.3-6.03,3.22-12.46,4.33-19.13,2.72-6.49-1.56-10.18-6.17-12.15-12.3-.47-1.45-.65-3-1-4.49-.21-.9-.47-1.78-.71-2.67l-.65.04Z"/>
        <path class="cls-4" d="m200.72,169.23c-.56,4.37-1.9,8.05-4.94,10.58-2.87,2.39-8.36,3.41-12.37,1.15-.83-.47-1.66-1.55-1.77-2.44-.06-.53,1.18-1.48,2-1.81,1.84-.72,3.77-1.23,5.68-1.72,4.08-1.03,7.91-2.56,11.4-5.78Z"/>
        <path class="cls-4" d="m226.18,163.85c4.55.89,8.48-.61,12.22-2.99.9-.58,1.94-.99,2.97-1.31,1.6-.5,2.51.2,2.2,1.84-.24,1.22-.78,2.48-1.52,3.47-2.02,2.7-4.76,4.33-8.11,5.07-1.51.33-2.59-.31-3.53-1.09-1.63-1.36-3.07-2.95-4.59-4.45.12-.18.24-.36.36-.54Z"/>
      </g>
    </g>
  </g>
</svg>