<?xml version="1.0" encoding="UTF-8"?>
<svg id="Laag_1" data-name="Laag 1" xmlns="http://www.w3.org/2000/svg" viewBox="0 0 590.3 360.03">
  <defs>
    <style>
      .cls-1 {
        fill: #f1f1f1;
        stroke-width: 0px;
      }
    </style>
  </defs>
  <path class="cls-1" d="m278.26,330.73c30.35,19.48,61.81,25.24,95.6,13.16,34.13-12.2,54.27-37.77,66.14-70.75,53.75,23.68,88.21,20.8,119.17-9.49,25.32-24.77,34.68-64.01,20.03-96.5-23.17-51.42-64.61-65.8-117.94-52.41-1.2-4.12-2.15-7.27-3.02-10.44-16.22-58.47-73.25-86.21-128.71-62.11-7.25,3.15-10.91,1.44-15.97-3.56C281.23,6.69,242.6-4.7,199.14,9.1c-43.18,13.72-69.37,44.39-77.43,89.31-1.62,9.02-5.14,11.27-13.91,11.44-50.89.96-90.39,42.45-89.43,93.16.92,48.58,44.11,88.96,94.2,86.68,11.01-.5,14.92,3.13,18.88,12.46,15.38,36.2,49.01,56.23,88.32,54.43,22.56-1.03,40.99-11.01,58.49-25.85h0Z"/>
</svg>