<?xml version="1.0" encoding="UTF-8"?>
<svg id="Laag_1" data-name="Laag 1" xmlns="http://www.w3.org/2000/svg" viewBox="0 0 590.3 360.03">
  <defs>
    <style>
      .cls-1 {
        fill: #f1f1f1;
        stroke-width: 0px;
      }
    </style>
  </defs>
  <g id="ZSw2M4">
    <path class="cls-1" d="m500.9,238.66c-17.65,33.95-44.19,46.16-80.66,34.3-8.09,21.45-19.92,39.65-37.99,52.99-40.07,29.61-92.64,26.71-128.94-7.64-5.38-5.09-9.18-5.84-15.81-2.58-51.22,25.12-108.46-7.07-116.47-65.1-.45-3.25-1.29-6.44-2.07-10.27-28.32.95-47.5-12.82-59.5-39.47-15.34,9.1-30.61,14.43-43.32-2.85-6.81-9.25-5.84-21.68,1.33-30.92,8.69-11.19,17.37-11.71,42.1-1.98,14.21-29.72,37.15-43.63,69.98-36.7,1.36-2.97,2.49-5.25,3.47-7.6,14.95-35.82,46.13-53.52,83.64-46.57,6.72,1.25,9.5-.5,12.61-6.1C252.82,25.84,288.63,3.78,335.86,6.17c48.13,2.44,81.8,28.62,101.54,73.99,1.67,3.83,6.31,7.87,10.24,8.81,27.87,6.6,46.99,23.3,56.49,50.91,2.72,7.91,5.65,10.01,13.89,8.04,20.73-4.97,41.37,4.78,51.78,23.07,10.27,18.04,8.74,40.18-3.86,56.1-13.22,16.7-34.04,22.48-54.42,15.14-3.34-1.2-6.73-2.26-10.63-3.56Z"/>
  </g>
</svg>